<?xml version="1.0" encoding="UTF-8"?>
<svg width="67px" height="67px" viewBox="0 0 67 67" version="1.1" xmlns="http://www.w3.org/2000/svg" xmlns:xlink="http://www.w3.org/1999/xlink">
    <title>Combined Shape</title>
    <g id="Design-v2" stroke="none" stroke-width="1" fill="none" fill-rule="evenodd">
        <g id="Forsiden" transform="translate(-254.000000, -1774.000000)" fill="#2B2862">
            <path d="M315,1774 C318.313708,1774 321,1776.68629 321,1780 L321,1835 C321,1838.31371 318.313708,1841 315,1841 L260,1841 C256.686292,1841 254,1838.31371 254,1835 L254,1780 C254,1776.68629 256.686292,1774 260,1774 L315,1774 Z M306,1788 C301.954648,1788.27813 273.534058,1790.98439 271.54732,1810.46964 C271.305911,1812.55246 271.169191,1814.64466 271.079346,1816.73842 L285.053702,1802.7782 C285.541988,1802.28991 286.334964,1802.28991 286.82325,1802.7782 C287.311536,1803.26648 287.311536,1804.05789 286.82325,1804.54617 L266.549615,1824.7994 C265.816795,1825.53143 265.816795,1826.71894 266.549615,1827.45097 C267.282434,1828.18301 268.470727,1828.18301 269.204328,1827.45097 L273.667653,1822.99236 C276.955966,1822.98142 280.241936,1822.7947 283.508374,1822.41736 C287.68654,1821.99235 291.088136,1820.34938 293.866288,1818.00015 L285.979492,1818.00015 L297.447573,1814.18138 C298.326488,1813.01809 299.11712,1811.78215 299.826502,1810.50011 L293.487378,1810.50011 L301.810897,1806.34306 C305.085147,1798.37974 305.858592,1790.05157 306,1788 Z" id="Combined-Shape"></path>
        </g>
    </g>
</svg>