<?xml version="1.0" encoding="UTF-8"?>
<svg width="67px" height="67px" viewBox="0 0 67 67" version="1.1" xmlns="http://www.w3.org/2000/svg" xmlns:xlink="http://www.w3.org/1999/xlink">
    <title>Combined Shape</title>
    <g id="Design-v2" stroke="none" stroke-width="1" fill="none" fill-rule="evenodd">
        <g id="Forsiden" transform="translate(-831.000000, -1774.000000)" fill="#2B2862" fill-rule="nonzero">
            <path d="M892,1774 C895.313708,1774 898,1776.68629 898,1780 L898,1835 C898,1838.31371 895.313708,1841 892,1841 L837,1841 C833.686292,1841 831,1838.31371 831,1835 L831,1780 C831,1776.68629 833.686292,1774 837,1774 L892,1774 Z M871,1817 L859,1817 C851.820298,1817 846,1822.8203 846,1830 L846,1830 L884,1830 L883.99645,1829.69314 C883.833428,1822.65519 878.077135,1817 871,1817 L871,1817 Z M867,1781 L863,1781 C861.895431,1781 861,1781.89543 861,1783 L861,1783 L861.000334,1783.76825 C856.236784,1785.65626 852.746337,1790.82395 852.449787,1797.00082 C851.644605,1797.02731 851,1797.68838 851,1798.5 C851,1799.32843 851.671573,1800 852.5,1800 L852.5,1800 L854.129417,1799.99967 C854.044209,1800.65171 854,1801.31976 854,1802 C854,1809.1797 857.223984,1815 865,1815 C872.776016,1815 876,1809.1797 876,1802 C876,1801.31976 875.955791,1800.65171 875.870583,1799.99967 L875.870583,1799.99967 L877.5,1800 C878.328427,1800 879,1799.32843 879,1798.5 C879,1797.67157 878.328427,1797 877.5,1797 L877.5,1797 L877.550168,1797.00186 C877.253663,1790.8246 873.763699,1785.65703 869.000664,1783.76865 L869.000664,1783.76865 L869,1783 C869,1781.89543 868.104569,1781 867,1781 L867,1781 Z M877.5,1798 C877.776142,1798 878,1798.22386 878,1798.5 C878,1798.77614 877.776142,1799 877.5,1799 L877.5,1799 L852.5,1799 L852.410124,1798.99194 C852.176875,1798.94961 852,1798.74546 852,1798.5 C852,1798.22386 852.223858,1798 852.5,1798 L852.5,1798 Z M861,1784.50091 L861,1793 L860.993956,1793.15665 C860.917865,1794.13877 860.132379,1794.92198 859.149262,1794.99451 L859.149262,1794.99451 L859,1795 L859,1787.20603 L859.006032,1787.02073 C859.078085,1785.91631 859.789822,1784.95364 860.8246,1784.561 L860.8246,1784.561 L861,1784.50091 Z M869,1784.50091 L869.1754,1784.561 C870.267666,1784.97545 871,1786.02503 871,1787.20603 L871,1787.20603 L871,1795 L870.850738,1794.99451 C869.815878,1794.91817 869,1794.05436 869,1793 L869,1793 L869,1784.50091 Z" id="Combined-Shape"></path>
        </g>
    </g>
</svg>