<?xml version="1.0" encoding="UTF-8"?>
<svg width="67px" height="67px" viewBox="0 0 67 67" version="1.1" xmlns="http://www.w3.org/2000/svg" xmlns:xlink="http://www.w3.org/1999/xlink">
    <title>Combined Shape</title>
    <g id="Design-v2" stroke="none" stroke-width="1" fill="none" fill-rule="evenodd">
        <g id="Forsiden" transform="translate(-543.000000, -1774.000000)" fill="#2B2862">
            <path d="M604,1774 C607.313708,1774 610,1776.68629 610,1780 L610,1835 C610,1838.31371 607.313708,1841 604,1841 L549,1841 C545.686292,1841 543,1838.31371 543,1835 L543,1780 C543,1776.68629 545.686292,1774 549,1774 L604,1774 Z M579.177109,1784.99678 C577.729525,1783.84418 576.11346,1783.95845 574.686653,1784.061 L574.686653,1784.061 L574.259404,1784.09051 C574.008948,1784.10754 573.751315,1784.12078 573.490659,1784.13441 C572.024565,1784.2116 570.363168,1784.29863 568.94165,1785.00245 C567.642149,1785.65368 566.78803,1786.70146 565.962998,1787.71443 L565.962998,1787.71443 L565.840225,1787.86503 C564.473105,1789.51788 563.207602,1791.39965 561.861259,1793.78356 C560.77066,1795.6975 559.758636,1797.68711 558.829342,1799.54808 C556.271138,1804.60953 554.716648,1808.6092 553.788109,1812.51238 C553.723512,1812.77953 553.650982,1813.055 553.577318,1813.33539 C552.993298,1815.5547 552.192821,1818.59513 554.937261,1820.22678 C556.802649,1821.33662 558.800632,1822.30873 560.880967,1823.11888 C564.644609,1824.56587 568.591465,1825.47668 572.609718,1825.82594 C573.940196,1825.94211 575.263118,1826 576.574329,1826 C583.681919,1825.99924 590.422325,1824.31045 595.876829,1821.11829 C599.182623,1819.18883 601.096365,1815.99515 600.996258,1812.58314 C600.969815,1811.27123 600.651362,1809.98051 600.050342,1808.74996 C598.589915,1805.73186 594.525575,1803.82322 590.612717,1804.29205 C588.138754,1804.59288 586.270344,1805.79505 585.268142,1807.67002 C583.696652,1805.887 580.808662,1803.3892 577.510801,1804.2387 C574.779583,1804.94593 571.927858,1807.18794 569.600467,1809.41708 C569.872078,1808.63531 570.051892,1807.90841 570.100246,1807.26475 C570.166354,1806.37324 570.165221,1805.47758 570.16371,1804.61104 L570.163314,1804.09014 C570.163899,1803.5753 570.168999,1803.07673 570.192798,1802.57753 L570.192798,1802.57753 L570.194686,1802.53742 L570.193175,1802.49731 C570.134622,1800.35255 570.402078,1797.50624 571.786953,1795.03152 C572.433681,1795.93059 573.446461,1796.64841 574.322491,1796.7608 C574.707808,1796.80658 575.096147,1796.74755 575.437266,1796.69609 C575.543417,1796.67982 575.644657,1796.66393 575.728143,1796.65598 L575.728143,1796.65598 L576.154258,1796.62079 C577.450737,1796.51635 578.919853,1796.39791 580.121514,1795.51852 C582.001257,1794.12979 582.280045,1791.3603 581.723602,1789.23673 C581.376061,1787.8866 580.524208,1786.06348 579.177109,1784.99678 Z M597.615568,1816.74483 C596.928171,1817.73323 595.978501,1818.60391 594.810029,1819.2857 C588.722019,1822.84719 580.906125,1824.41754 572.792933,1823.71258 C568.971116,1823.37959 565.218807,1822.51382 561.643668,1821.13948 C560.659976,1820.75654 559.694889,1820.33481 558.755017,1819.87752 L558.755017,1819.87752 L558.84966,1819.87488 C559.629068,1819.85404 560.420097,1819.87151 561.221609,1820.18383 C564.890598,1821.59473 568.775076,1822.49206 572.691366,1822.83217 C580.385337,1823.50441 588.740599,1822.28294 595.391913,1818.25024 C596.18967,1817.76656 596.868064,1817.32032 597.438897,1816.8826 L597.438897,1816.8826 Z M572.691366,1790.12567 L573.882412,1790.64713 C572.96588,1790.83006 571.967271,1791.16081 571.548585,1791.75459 C571.544052,1791.7614 571.539141,1791.76821 571.53423,1791.77502 L571.53423,1791.77502 L571.487388,1791.82724 C568.529512,1795.11325 567.997245,1799.44553 568.07582,1802.51548 C568.04371,1803.22119 568.044843,1803.92955 568.046354,1804.61521 L568.046762,1805.12833 C568.045977,1805.80571 568.037213,1806.4577 567.988557,1807.10582 C567.853696,1808.91381 565.979241,1812.30993 565.178764,1813.75995 C564.806468,1814.43436 564.51779,1814.95791 564.584969,1815.40142 C563.775827,1815.98476 563.138853,1816.28363 562.746694,1816.13413 C562.011215,1815.85375 567.138772,1808.95457 567.353882,1806.07393 C567.406031,1805.37924 567.396138,1804.19089 567.376279,1802.95242 L567.376279,1802.95242 L567.362135,1802.12421 C567.340419,1800.88537 567.320309,1799.69495 567.353882,1798.99651 C568.056915,1792.33201 572.674703,1790.27523 572.691366,1790.12567 L572.691366,1790.12567 Z" id="Combined-Shape"></path>
        </g>
    </g>
</svg>